<svg xmlns="http://www.w3.org/2000/svg" width="4375" height="3750" viewBox="0 0 4375 3750">
  <defs>
    <style>
      .cls-1 {
        fill: #ef5902;
        fill-rule: evenodd;
      }
    </style>
  </defs>
  <path id="Заливка_цветом_1" data-name="Заливка цветом 1" class="cls-1" d="M1854,1757l79-18c75.01-20.61,145.09-41.11,211-69,210.56-89.12,366.44-219.99,450-436,20.22-52.28,32.18-108.61,42-171q4.005-84.99,8-170V857q1.5-78.492,3-157,0.495-67.493,1-135V476c0-87.82-5.51-173.185-7-256q100.485-55.995,201-112,1.995,864.414,4,1729,683.43,0.495,1367,1-28.995,60.495-58,121-343.47,1.995-687,4c-335.47,67.06-623.17,196.31-746,475-24.84,56.36-41.78,116.74-57,184-10.84,47.9-1.87,105.33-11,157q-0.495,33-1,66-1.5,74.49-3,149-1.005,139.98-2,280,1.995,85.995,4,172c0.14,11.08,3.97,55.89,1,59l-146,76c-14.42,7.35-38.71,27.02-54,27q-1.995-818.415-4-1637h-1q-39,4.005-78,8c-60.47,11.88-116.38,24.55-168,45-275.81,109.28-475.03,347.31-542,666q1.5,405.465,3,811-100.485,54-201,108-4.005-779.415-8-1559H91v-1q29-62.49,58-125c63.133-.36,137.882-8.99,200,1q39,1.005,78,2H534c75.5,0.01,151.6.44,219-11,80.865-13.72,156.585-16.73,228-38,226.2-67.37,387.03-159.21,508-331,54.58-77.51,93.54-169.48,124-271q12.495-55.5,25-111,4.005-24.495,8-49c0.33,1,.67,2,1,3,2.29-218.443,1.02-448.761,1-669q-1.005-84.991-2-170c0-12.042-3.21-55.124,1-60l203-112Q1852,932.418,1854,1757Z"/>
</svg>
