<svg xmlns="http://www.w3.org/2000/svg" viewBox="44 57 165 142">
  <defs>
    <style>
      path { fill: #262124; fill-rule: evenodd; }
      @media (prefers-color-scheme: dark) { path { fill: #EBEBDF; } }
    </style>
  </defs>
  <path d="M120,57h14V78l38,39,16-16v-1L155,68l11-11,43,44-9,9-17,18c7.312,9.482,22.1,16.981,26,29l-43,42c-7.751-4.916-12.258-9.907-4-16l26-27-14-14v-2c-8.617,2.759-34.133,31.111-40,39v20H120V179L81,139,65,155l33,33L88,199,44,155l25-27v-2L44,101V99L86,57h2l9,10L65,100l9,9,6,7,40-40V57Zm6,35L91,127v1l35,36,35-34v-3Z"/>
</svg>
