<svg xmlns="http://www.w3.org/2000/svg" viewBox="91 108 4122 3501"><path d="m1854 1757 79-18c75-21 145-41 211-69 211-89 366-220 450-436 20-52 32-109 42-171l8-170v-36l3-157 1-135v-89c0-88-6-173-7-256l201-112 4 1729 1367 1-58 121-687 4c-335 67-623 196-746 475-25 56-42 117-57 184-11 48-2 105-11 157l-1 66-3 149-2 280 4 172c0 11 4 56 1 59l-146 76c-14 7-39 27-54 27l-4-1637h-1l-78 8c-60 12-116 25-168 45a890 890 0 0 0-542 666l3 811-201 108-8-1559H91v-1l58-125c63 0 138-9 200 1l78 2h107c76 0 152 0 219-11 81-14 157-17 228-38 226-67 387-159 508-331 55-78 94-169 124-271l25-111 8-49 1 3c2-218 1-449 1-669l-2-170c0-12-3-55 1-60l203-112 4 1649Z" fill="#ef5902" fill-rule="evenodd"/></svg>