<?xml version="1.0" encoding="UTF-8"?>
<svg version="1.1" xmlns="http://www.w3.org/2000/svg" width="200" height="200">
<path d="M0 0 C66 0 132 0 200 0 C200 66 200 132 200 200 C134 200 68 200 0 200 C0 134 0 68 0 0 Z " fill="#28A5F9" transform="translate(0,0)"/>
<path d="M0 0 C2.69610206 0.02377904 5.39122039 0.02050874 8.08740234 0.01391602 C25.48056485 0.0424672 42.67292999 1.09049063 56.09912109 13.30493164 C70.04664918 27.72260112 70.38287747 48.84716018 70.21826172 67.765625 C69.86148944 86.10290949 69.06368604 107.23537214 55.23193359 121.03540039 C36.8077213 136.40181274 5.62486349 134.93236278 -16.75732422 133.11791992 C-31.17223763 131.45555962 -42.98946555 127.0999253 -53.06494141 116.33618164 C-57.90343879 110.13297986 -60.40066523 103.37458618 -61.72900391 95.68383789 C-61.85514069 94.95511978 -61.98127747 94.22640167 -62.11123657 93.4756012 C-63.42448753 85.14368022 -63.51692776 76.83396076 -63.45605469 68.41552734 C-63.43993127 65.77201957 -63.45602893 63.13003506 -63.47509766 60.48657227 C-63.49699866 43.61023071 -62.35516909 26.0902267 -50.43994141 12.96118164 C-36.50301378 0.31276242 -17.79528325 -0.16757306 0 0 Z " fill="#FDFEFE" transform="translate(97.06494140625,33.663818359375)"/>
<path d="M0 0 C0.80090561 0.00041794 1.60181122 0.00083588 2.42698669 0.00126648 C4.11221589 0.00961332 5.79743758 0.03497079 7.48217773 0.07641602 C10.05531012 0.13664189 12.62352831 0.13798612 15.19726562 0.13085938 C16.83988 0.14626649 18.48246702 0.16503297 20.125 0.1875 C21.27205162 0.18947136 21.27205162 0.18947136 22.442276 0.19148254 C27.40050008 0.34477471 30.0048292 1.29486617 33.49609375 4.82421875 C35.53885151 7.83971829 35.78877205 10.21451967 35.49609375 13.82421875 C34.49609375 14.82421875 34.49609375 14.82421875 31.43359375 14.88671875 C30.46421875 14.86609375 29.49484375 14.84546875 28.49609375 14.82421875 C28.51671875 13.85484375 28.53734375 12.88546875 28.55859375 11.88671875 C28.85227874 8.9495598 28.85227874 8.9495598 27.49609375 7.82421875 C24.90250053 7.73570346 22.33569684 7.7089593 19.7421875 7.7265625 C18.96674088 7.72797745 18.19129425 7.7293924 17.39234924 7.73085022 C14.90605881 7.7364653 12.41985715 7.74902029 9.93359375 7.76171875 C8.25195442 7.76673181 6.57031369 7.77129505 4.88867188 7.77539062 C0.75777809 7.78643962 -3.37304901 7.8037143 -7.50390625 7.82421875 C-7.86127597 12.77989921 -6.93775824 15.56083877 -4.4765625 19.84375 C-3.84943359 20.94783203 -3.22230469 22.05191406 -2.57617188 23.18945312 C-1.91294922 24.32705078 -1.24972656 25.46464844 -0.56640625 26.63671875 C0.10075006 27.80468771 0.76677751 28.97330225 1.43164062 30.14257812 C4.0664937 35.26891855 4.0664937 35.26891855 7.49609375 39.82421875 C9.90607952 40.25710198 9.90607952 40.25710198 12.49609375 39.82421875 C14.29992299 38.04661798 14.29992299 38.04661798 15.62109375 35.63671875 C16.12898438 34.81945312 16.636875 34.0021875 17.16015625 33.16015625 C18.16927767 31.39566909 19.10198907 29.58718248 19.99609375 27.76171875 C20.49109375 27.12234375 20.98609375 26.48296875 21.49609375 25.82421875 C24.68359375 25.51171875 24.68359375 25.51171875 27.49609375 25.82421875 C26.21011473 30.11926196 24.58621455 33.66682236 22.18359375 37.44921875 C21.60996094 38.36960938 21.03632812 39.29 20.4453125 40.23828125 C17.67295014 43.91624494 15.17871936 46.53781439 10.55859375 47.32421875 C5.61917546 46.51778311 2.45175382 44.0867411 -0.54614258 40.1262207 C-4.21259098 33.85009726 -4.21259098 33.85009726 -5.31030273 31.90844727 C-6.31102864 30.14618861 -7.34191627 28.40438453 -8.37695312 26.66210938 C-15.53255083 14.1986705 -15.53255083 14.1986705 -14.50390625 7.82421875 C-10.97290248 1.3946144 -7.05560318 -0.21814826 0 0 Z " fill="#33ACFE" transform="translate(81.50390625,88.17578125)"/>
<path d="M0 0 C3.61992164 3.20940411 6.11838759 6.48535427 8.515625 10.66796875 C9.12664062 11.72564453 9.73765625 12.78332031 10.3671875 13.87304688 C10.98851562 14.96681641 11.60984375 16.06058594 12.25 17.1875 C13.20519531 18.84555664 13.20519531 18.84555664 14.1796875 20.53710938 C20.95860619 32.32810092 20.95860619 32.32810092 20 39 C18.20636089 41.8100346 16.98119065 43.50940468 14 45 C11.28711867 45.13548522 8.60114887 45.21268346 5.88671875 45.23828125 C4.67687065 45.25038887 4.67687065 45.25038887 3.44258118 45.26274109 C1.73363393 45.27658143 0.02465904 45.28730382 -1.68432617 45.29516602 C-4.2920403 45.31236506 -6.89848187 45.35624794 -9.50585938 45.40039062 C-11.16665735 45.41051897 -12.8274661 45.41903463 -14.48828125 45.42578125 C-15.6541552 45.45204338 -15.6541552 45.45204338 -16.84358215 45.47883606 C-20.61168467 45.46381587 -22.76495107 45.15052176 -25.96948242 43.09838867 C-29.74706899 39.19453434 -29.08427171 36.224846 -29 31 C-27.02 31 -25.04 31 -23 31 C-23.04125 31.94875 -23.0825 32.8975 -23.125 33.875 C-23.34973818 37.10244856 -23.34973818 37.10244856 -21 39 C-18.51433457 39.19948557 -16.1424925 39.27989743 -13.65625 39.265625 C-12.56890564 39.26849518 -12.56890564 39.26849518 -11.45959473 39.27142334 C-9.92634738 39.27278487 -8.3930885 39.26909064 -6.85986328 39.26074219 C-4.50917741 39.25004178 -2.15925577 39.26063808 0.19140625 39.2734375 C1.67968919 39.2721159 3.16797166 39.26955349 4.65625 39.265625 C5.36148804 39.26967346 6.06672607 39.27372192 6.79333496 39.27789307 C10.84601687 39.35277396 10.84601687 39.35277396 14 37 C13.57883518 30.38253596 10.12921568 25.42070329 6.79052734 19.86621094 C5.74706753 18.12009283 4.73475602 16.35818543 3.72265625 14.59375 C3.06652344 13.49289063 2.41039063 12.39203125 1.734375 11.2578125 C1.13850586 10.2486377 0.54263672 9.23946289 -0.07128906 8.19970703 C-1.81252354 5.76445417 -1.81252354 5.76445417 -4.59301758 5.47998047 C-7.3759789 5.80271797 -7.3759789 5.80271797 -9.24609375 9.0625 C-10.37635249 11.02991309 -11.44916826 13.02185953 -12.51757812 15.0234375 C-13.62109375 16.9375 -13.62109375 16.9375 -16 20 C-19.28515625 20.4375 -19.28515625 20.4375 -22 20 C-19.43574955 13.17456865 -15.93997109 4.72231664 -10 0.1875 C-6.08461496 -1.36233991 -4.0170436 -1.24163166 0 0 Z " fill="#2FAAFE" transform="translate(113,66)"/>
</svg>
